Monsters en Co (2001) 1080P MKV MUlti Audio NLSubs-DMT

Verenigde Staten
Animatie / Komedie
86 minuten

geregisseerd door Pete Docter, David Silverman en Lee Unkrich
met de stemmen van Billy Crystal, John Goodman en Steve Buscemi

Monsters, Incorporated is de grootste bangmaak-fabriek ter wereld, en Sulley
is één van de beste medewerkers. Het is de taak van Sulley en z'n collega's 
om kleine kinderen bang te maken, en vervolgens de angstkreten 
(die als energiebron gebruikt worden) op te vangen. Op een dag wordt er per 
ongeluk een kind mee teruggebracht, wat tot grote chaos leidt.
----------------------------------------------------------------------------

PLOT

Monsters generate their city's power by scaring children, but they are 
terribly afraid themselves of being contaminated by children, so when one 
enters Monstropolis, top scarer Sulley finds his world disrupted. 
----------------------------------------------------------------------------
 
http://www.youtube.com/watch?v=cvOQeozL4S0

MM:    http://www.moviemeter.nl/film/956

IMDB:    http://www.imdb.com/title/tt0198781/
----------------------------------------------------------------------------
INFO

Source.........: 1080P BluRay 
FRAME RATE.....: 23.976Fps 
VIDEO CODEC....: X264  
AUDIO CODEC(1).: DTS Dutch & English
AUDIO CODEC(2).: AC3 Dutch & English
AUDIO CODEC(3).: AC3 Flemish (Vlaams)
RESOLUTION.....: 1920x1036
RUNTIME........: 92 MINS 
GENERE.........: Animation/Adventure/Comedy/Family
LANGUAGE.......: English, Dutch & Flemish 
SUBTITLES......: Dutch 

Thanks To Bradje

Enjoy


General
Complete name                    : Monsters.en.Co.2001.1080P.MKV.Multi.Audio.NLSubs-DMT.mkv
Format                           : Matroska
File size                        : 8.76 GiB
Duration                         : 1h 32mn
Overall bit rate                 : 13.6 Mbps
Encoded date                     : UTC 2010-09-07 17:17:35
Writing application              : mkvmerge v3.3.0 ('Language') built on Mar 24 2010 14:59:24
Writing library                  : libebml v0.8.0 + libmatroska v0.9.0

Video
ID                               : 1
Format                           : AVC
Format/Info                      : Advanced Video Codec
Format profile                   : High@L4.1
Format settings, CABAC           : Yes
Format settings, ReFrames        : 4 frames
Muxing mode                      : Container profile=Unknown@4.1
Codec ID                         : V_MPEG4/ISO/AVC
Duration                         : 1h 32mn
Bit rate                         : 8 668 Kbps
Width                            : 1 920 pixels
Height                           : 1 036 pixels
Display aspect ratio             : 1.853
Frame rate                       : 23.976 fps
Color space                      : YUV
Chroma subsampling               : 4:2:0
Bit depth                        : 8 bits
Scan type                        : Progressive
Bits/(Pixel*Frame)               : 0.182
Stream size                      : 5.41 GiB (62%)
Title                            : x264
Writing library                  : x264 core 93 r1538 bd72d46
Encoding settings                : cabac=1 / ref=4 / deblock=1:-1:0 / analyse=0x3:0x113 / 
me=umh / subme=10 / psy=1 / psy_rd=0.75:0.00 / mixed_ref=1 / me_range=24 / chroma_me=1 / 
trellis=2 / 8x8dct=1 / cqm=0 / deadzone=21,11 / fast_pskip=1 / chroma_qp_offset=-2 / 
threads=3 / sliced_threads=0 / nr=0 / decimate=1 / interlaced=0 / constrained_intra=0 / 
bframes=8 / b_pyramid=2 / b_adapt=2 / b_bias=0 / direct=3 / wpredb=1 / wpredp=2 / 
keyint=250 / keyint_min=25 / scenecut=40 / intra_refresh=0 / rc_lookahead=0 / 
rc=2pass / mbtree=0 / bitrate=8668 / ratetol=1.0 / qcomp=0.60 / qpmin=10 / qpmax=51 / 
qpstep=4 / cplxblur=20.0 / qblur=0.5 / vbv_maxrate=28000 / vbv_bufsize=49000 / 
ip_ratio=1.40 / pb_ratio=1.30 / aq=1:0.65 / zones=124601,131539,q=25,deblock=1:2 / nal_hrd=none
Language                         : English

Audio #1
ID                               : 2
Format                           : AC-3
Format/Info                      : Audio Coding 3
Mode extension                   : CM (complete main)
Codec ID                         : A_AC3
Duration                         : 1h 32mn
Bit rate mode                    : Constant
Bit rate                         : 640 Kbps
Channel(s)                       : 6 channels
Channel positions                : Front: L C R, Side: L R, LFE
Sampling rate                    : 48.0 KHz
Bit depth                        : 16 bits
Stream size                      : 422 MiB (5%)
Title                            : AC3
Language                         : Dutch

Audio #2
ID                               : 3
Format                           : DTS
Format/Info                      : Digital Theater Systems
Format profile                   : ES
Codec ID                         : A_DTS
Duration                         : 1h 32mn
Bit rate mode                    : Constant
Bit rate                         : 1 510 Kbps
Channel(s)                       : 6 channels
Channel positions                : Front: L C R, Side: L R, LFE
Sampling rate                    : 48.0 KHz
Bit depth                        : 24 bits
Stream size                      : 996 MiB (11%)
Title                            : DTS
Language                         : Dutch

Audio #3
ID                               : 4
Format                           : AC-3
Format/Info                      : Audio Coding 3
Mode extension                   : CM (complete main)
Codec ID                         : A_AC3
Duration                         : 1h 32mn
Bit rate mode                    : Constant
Bit rate                         : 640 Kbps
Channel(s)                       : 6 channels
Channel positions                : Front: L C R, Side: L R, LFE
Sampling rate                    : 48.0 KHz
Bit depth                        : 16 bits
Stream size                      : 422 MiB (5%)
Title                            : AC3
Language                         : English

Audio #4
ID                               : 5
Format                           : DTS
Format/Info                      : Digital Theater Systems
Format profile                   : ES
Codec ID                         : A_DTS
Duration                         : 1h 32mn
Bit rate mode                    : Constant
Bit rate                         : 1 510 Kbps
Channel(s)                       : 6 channels
Channel positions                : Front: L C R, Side: L R, LFE
Sampling rate                    : 48.0 KHz
Bit depth                        : 24 bits
Stream size                      : 996 MiB (11%)
Title                            : DTS
Language                         : English

Audio #5
ID                               : 6
Format                           : AC-3
Format/Info                      : Audio Coding 3
Mode extension                   : CM (complete main)
Codec ID                         : A_AC3
Duration                         : 1h 32mn
Bit rate mode                    : Constant
Bit rate                         : 640 Kbps
Channel(s)                       : 6 channels
Channel positions                : Front: L C R, Side: L R, LFE
Sampling rate                    : 48.0 KHz
Bit depth                        : 16 bits
Stream size                      : 422 MiB (5%)
Title                            : AC3 Vlaams
Language                         : Dutch

Text
ID                               : 7
Format                           : UTF-8
Codec ID                         : S_TEXT/UTF8
Codec ID/Info                    : UTF-8 Plain Text
Title                            : Subtitles
Language                         : Dutch

Menu
00:00:00.000                     : en:Video Start
00:05:00.000                     : en:Chapter 1 - 00 Hr 05 Min
00:10:00.000                     : en:Chapter 2 - 00 Hr 10 Min
00:15:00.000                     : en:Chapter 3 - 00 Hr 15 Min
00:20:00.000                     : en:Chapter 4 - 00 Hr 20 Min
00:25:00.000                     : en:Chapter 5 - 00 Hr 25 Min
00:30:00.000                     : en:Chapter 6 - 00 Hr 30 Min
00:35:00.000                     : en:Chapter 7 - 00 Hr 35 Min
00:40:00.000                     : en:Chapter 8 - 00 Hr 40 Min
00:45:00.000                     : en:Chapter 9 - 00 Hr 45 Min
00:50:00.000                     : en:Chapter 10 - 00 Hr 50 Min
00:55:00.000                     : en:Chapter 11 - 00 Hr 55 Min
01:00:00.000                     : en:Chapter 12 - 01 Hr 00 Min
01:05:00.000                     : en:Chapter 13 - 01 Hr 05 Min
01:10:00.000                     : en:Chapter 14 - 01 Hr 10 Min
01:15:00.000                     : en:Chapter 15 - 01 Hr 15 Min
01:20:00.000                     : en:Chapter 16 - 01 Hr 20 Min
01:25:00.000                     : en:Chapter 17 - 01 Hr 25 Min
01:30:00.000                     : en:Chapter 18 - 01 Hr 30 Min

